<?xml version="1.0" encoding="iso-8859-1"?>
<!-- Generator: Adobe Illustrator 19.0.0, SVG Export Plug-In . SVG Version: 6.00 Build 0)  -->
<svg version="1.1" id="Layer_1" xmlns="http://www.w3.org/2000/svg" xmlns:xlink="http://www.w3.org/1999/xlink" x="0px" y="0px"
	 viewBox="0 0 496.2 496.2" style="enable-background:new 0 0 496.2 496.2;" xml:space="preserve">
<path style="fill:#FFBB00;" d="M0,248.1C0,111.1,111.1,0,248.1,0s248.1,111.1,248.1,248.1S385.1,496.2,248.1,496.2S0,385.1,0,248.1z
	"/>
<polygon style="fill:#CCCCCC;" points="334,389.9 320.7,382.7 321.1,168.9 334.4,176.1 "/>
<polygon style="fill:#E6E6E6;" points="334.4,176.1 321.1,168.9 366.8,162.5 380.1,169.7 "/>
<polygon style="fill:#FFFFFF;" points="380.1,169.7 379.7,383.5 334,389.9 334.4,176.1 "/>
<polygon style="fill:#CCCCCC;" points="273.6,398.8 260.3,391.6 260.7,218.1 274,225.4 "/>
<polygon style="fill:#E6E6E6;" points="274,225.4 260.7,218.1 306.4,211.7 319.7,218.9 "/>
<polygon style="fill:#FFFFFF;" points="319.7,218.9 319.3,392.4 273.6,398.8 274,225.4 "/>
<polygon style="fill:#CCCCCC;" points="213.2,407.8 199.9,400.6 200.3,276.3 213.6,283.5 "/>
<polygon style="fill:#E6E6E6;" points="213.6,283.5 200.3,276.3 246,269.9 259.3,277.1 "/>
<polygon style="fill:#FFFFFF;" points="259.3,277.1 258.9,401.4 213.2,407.8 213.6,283.5 "/>
<polygon style="fill:#CCCCCC;" points="152.7,416.8 139.5,409.5 139.9,332.3 153.1,339.5 "/>
<polygon style="fill:#E6E6E6;" points="153.1,339.5 139.9,332.3 185.6,325.8 198.8,333 "/>
<polygon style="fill:#FFFFFF;" points="198.8,333 198.5,410.3 152.7,416.8 153.1,339.5 "/>
<g style="enable-background:new    ;">
	<polygon style="fill:#127899;" points="289.2,155.6 279.3,150.3 299.1,166.5 309,171.8 	"/>
	<g>
		<polygon style="fill:#2DBACC;" points="286.2,79.4 225.2,143.3 235.1,148.7 296.1,84.8 		"/>
		<path style="fill:#2DBACC;" d="M257.9,162.4c1.2-2.6,2.3-5.2,3.2-7.7c0,0,0,0,0-0.1c0.7-2,1.4-4,2-5.9l-9.9-5.4c-0.6,2-1.2,4-2,6
			c-0.9,2.5-2,5.1-3.2,7.7c-0.3,0.7-0.7,1.5-1,2.2c-0.9,2-1.9,3.9-3,5.9c-0.4,0.7-0.7,1.4-1.1,2.1c-1.8,3.3-3.7,6.6-5.8,10
			c-0.4,0.6-0.8,1.3-1.2,1.9c-2.2,3.4-4.4,6.8-6.8,10.3c-0.4,0.6-0.8,1.1-1.2,1.7c-1.6,2.3-3.3,4.6-5,6.9c-0.6,0.8-1.2,1.5-1.7,2.3
			c-2,2.6-4.1,5.3-6.2,7.9c-0.1,0.2-0.3,0.3-0.4,0.5c-2.3,2.8-4.6,5.7-7,8.5c-0.6,0.7-1.2,1.4-1.8,2.1c-1.9,2.2-3.8,4.5-5.8,6.7
			c-0.5,0.6-1,1.1-1.5,1.7c-2.7,3.1-5.4,6.1-8.2,9c-0.5,0.5-0.9,1-1.4,1.5c-2.5,2.7-5.1,5.4-7.6,8.1c-0.3,0.3-0.6,0.6-0.9,0.9
			c-2.7,2.8-5.4,5.6-8.1,8.3c-0.6,0.6-1.1,1.1-1.7,1.7c-2.5,2.6-5.1,5.1-7.5,7.5c-0.1,0.1-0.3,0.3-0.4,0.4c-2.6,2.5-5.1,4.9-7.5,7.3
			c-0.6,0.6-1.2,1.1-1.8,1.7c-2.4,2.2-4.7,4.4-6.9,6.5c-0.3,0.3-0.6,0.5-0.8,0.8c-2,1.9-4,3.7-5.8,5.4c-0.5,0.5-1,0.9-1.5,1.4
			c-2,1.8-3.9,3.6-5.7,5.2c-2.4,2.2-4.7,4.2-6.7,5.9c-0.2,0.2-0.4,0.4-0.7,0.6c-0.8,0.7-1.5,1.3-2.2,1.9c-0.3,0.3-0.6,0.5-0.8,0.7
			c-0.5,0.5-1.1,0.9-1.5,1.3c-0.3,0.3-0.6,0.5-0.8,0.7c-0.4,0.3-0.7,0.6-1.1,0.9c-0.3,0.2-0.6,0.5-0.8,0.7c-0.2,0.1-0.3,0.3-0.4,0.4
			c-0.7,0.6-1.2,1.1-1.5,1.3l9.9,5.4c0.2-0.2,0.7-0.6,1.4-1.2c0.2-0.2,0.4-0.3,0.6-0.5c0.3-0.2,0.6-0.5,0.9-0.8
			c0.3-0.2,0.5-0.4,0.8-0.7c0.4-0.3,0.8-0.7,1.2-1.1c0.3-0.3,0.6-0.5,0.9-0.8c0.5-0.4,0.9-0.8,1.5-1.3c0.4-0.4,0.8-0.7,1.3-1.1
			s1-0.9,1.5-1.3c0.4-0.3,0.8-0.7,1.2-1.1c1.3-1.2,2.7-2.4,4.2-3.7c0.3-0.3,0.6-0.5,0.9-0.8c0,0,0,0,0.1-0.1c1.9-1.7,3.9-3.5,6-5.5
			c0.3-0.3,0.7-0.6,1-1c2.1-1.9,4.3-3.9,6.5-6c0.1-0.1,0.2-0.2,0.3-0.3c2.3-2.1,4.6-4.4,7-6.7c0.6-0.5,1.1-1.1,1.7-1.6
			c2.5-2.4,5-4.8,7.5-7.3c0.2-0.2,0.3-0.3,0.5-0.5c2.4-2.4,4.8-4.8,7.3-7.3c0.6-0.7,1.3-1.3,1.9-2c2.6-2.6,5.2-5.3,7.8-8.1
			c0.4-0.5,0.9-0.9,1.3-1.4c2.4-2.5,4.7-5,7-7.5c0.6-0.6,1.2-1.3,1.8-1.9c2.7-2.9,5.3-5.8,7.9-8.7c0.2-0.2,0.4-0.4,0.6-0.6
			c0.4-0.4,0.8-0.9,1.1-1.3c1.9-2.1,3.7-4.3,5.6-6.5c0.7-0.8,1.3-1.5,2-2.3c2.3-2.8,4.6-5.5,6.9-8.3c0.2-0.2,0.4-0.5,0.6-0.7
			c2-2.6,4-5.1,6-7.7c0.6-0.8,1.2-1.6,1.8-2.4c1.7-2.3,3.4-4.6,5-6.9c0.3-0.4,0.7-0.9,1-1.3c0.1-0.1,0.2-0.2,0.2-0.4
			c2.4-3.4,4.7-6.9,6.8-10.3c0.4-0.6,0.8-1.3,1.2-1.9c2.1-3.4,4-6.7,5.8-10c0.1-0.2,0.3-0.5,0.4-0.7c0.3-0.5,0.5-0.9,0.7-1.4
			c1.1-2,2-4,3-5.9C257.2,163.9,257.6,163.2,257.9,162.4z"/>
	</g>
	<path style="fill:#00EDFF;" d="M296.1,84.8l12.9,87l-19.8-16.2c-2.2,4.6-43.7,92.2-163.2,157.8c5.9-5,118.4-100.4,137.1-164.6
		l-28-0.1L296.1,84.8z"/>
</g>
<g>
</g>
<g>
</g>
<g>
</g>
<g>
</g>
<g>
</g>
<g>
</g>
<g>
</g>
<g>
</g>
<g>
</g>
<g>
</g>
<g>
</g>
<g>
</g>
<g>
</g>
<g>
</g>
<g>
</g>
</svg>
